<svg width="566" height="439" viewBox="0 0 566 439" fill="none" xmlns="http://www.w3.org/2000/svg">
<path d="M152.402 199H192.923C208.839 199 223.843 191.57 233.489 178.91L276.023 123.09C285.669 110.43 300.673 103 316.588 103H340.665" stroke="#8D7DE9" stroke-width="11"/>
<path d="M149 180H171.871C188.737 180 204.467 171.496 213.705 157.384L281.63 53.6158C290.868 39.5037 306.598 31 323.465 31H341.232" stroke="#F99FC3" stroke-width="11"/>
<path d="M149 260H171.871C188.737 260 204.467 268.504 213.705 282.616L281.63 386.384C290.868 400.496 306.598 409 323.465 409H343.5" stroke="#F4D689" stroke-width="11"/>
<path d="M152.402 241H192.923C208.839 241 223.843 248.43 233.489 261.09L276.023 316.91C285.669 329.57 300.673 337 316.588 337H339.531" stroke="#C5FBAC" stroke-width="11"/>
<path d="M151.835 219.5H214.659C225.425 219.5 235.914 216.093 244.626 209.768L275.66 187.232C284.371 180.907 294.861 177.5 305.626 177.5H341.799" stroke="#ACD0FB" stroke-width="11"/>
<path d="M151.835 220H214.659C225.425 220 235.914 223.407 244.626 229.732L275.66 252.268C284.371 258.593 294.861 262 305.626 262H341.799" stroke="#ACFBED" stroke-width="11"/>
<rect x="339.5" y="1.5" width="225" height="57" rx="10.5" fill="#FFD8E7"/>
<rect x="339.5" y="1.5" width="225" height="57" rx="10.5" stroke="#F99FC3" stroke-width="3"/>
<path d="M372.244 32.598H366.844V31.05H372.244V32.598ZM369.292 25.074H369.796L365.926 36H364.126L368.644 23.4H370.444L374.962 36H373.162L369.292 25.074ZM376.19 36V27.18H377.45L377.774 28.872L377.144 28.602C377.738 27.942 378.317 27.51 378.881 27.306C379.451 27.102 380.006 27 380.546 27C381.836 27 382.757 27.372 383.309 28.116C383.867 28.86 384.146 29.868 384.146 31.14V36H382.526V31.14C382.526 30.204 382.352 29.52 382.004 29.088C381.656 28.656 381.062 28.44 380.222 28.44C379.628 28.44 379.082 28.572 378.584 28.836C378.092 29.094 377.768 29.508 377.612 30.078L377.81 29.088V36H376.19ZM385.344 36L388.422 31.608L385.416 27.18H387.234L389.448 30.672L391.482 27.18H393.372L390.474 31.464L393.48 36H391.662L389.43 32.526L387.162 36H385.344ZM394.77 36V27.18H396.39V36H394.77ZM394.77 25.2V23.4H396.39V25.2H394.77ZM402.814 36.18C401.776 36.18 400.903 35.967 400.195 35.541C399.487 35.115 398.95 34.551 398.584 33.849C398.224 33.141 398.044 32.364 398.044 31.518C398.044 30.696 398.212 29.943 398.548 29.259C398.89 28.575 399.382 28.029 400.024 27.621C400.672 27.207 401.452 27 402.364 27C403.096 27 403.747 27.147 404.317 27.441C404.893 27.729 405.343 28.152 405.667 28.71C405.997 29.262 406.162 29.934 406.162 30.726C406.162 30.852 406.156 30.99 406.144 31.14C406.138 31.284 406.12 31.434 406.09 31.59H399.7C399.778 32.406 399.973 33.042 400.285 33.498C400.597 33.954 400.99 34.275 401.464 34.461C401.938 34.647 402.454 34.74 403.012 34.74C403.42 34.74 403.846 34.698 404.29 34.614C404.734 34.53 405.154 34.398 405.55 34.218L405.766 35.496C405.424 35.646 405.007 35.799 404.515 35.955C404.023 36.105 403.456 36.18 402.814 36.18ZM399.844 30.474H404.488C404.488 30.06 404.41 29.7 404.254 29.394C404.098 29.088 403.861 28.854 403.543 28.692C403.225 28.524 402.82 28.44 402.328 28.44C401.608 28.44 401.053 28.62 400.663 28.98C400.279 29.334 400.006 29.832 399.844 30.474ZM410.837 36.18C410.279 36.18 409.832 36.078 409.496 35.874C409.16 35.67 408.914 35.409 408.758 35.091C408.608 34.767 408.533 34.428 408.533 34.074V28.44H407.021L407.165 27.18H408.533V25.002L410.153 24.84V27.18H412.475V28.44H410.153V33.084C410.153 33.648 410.186 34.056 410.252 34.308C410.318 34.56 410.48 34.719 410.738 34.785C411.002 34.851 411.425 34.884 412.007 34.884H412.421L412.295 36.18H410.837ZM413.86 36V27.18H415.48V36H413.86ZM413.86 25.2V23.4H415.48V25.2H413.86ZM421.904 36.18C420.866 36.18 419.993 35.967 419.285 35.541C418.577 35.115 418.04 34.551 417.674 33.849C417.314 33.141 417.134 32.364 417.134 31.518C417.134 30.696 417.302 29.943 417.638 29.259C417.98 28.575 418.472 28.029 419.114 27.621C419.762 27.207 420.542 27 421.454 27C422.186 27 422.837 27.147 423.407 27.441C423.983 27.729 424.433 28.152 424.757 28.71C425.087 29.262 425.252 29.934 425.252 30.726C425.252 30.852 425.246 30.99 425.234 31.14C425.228 31.284 425.21 31.434 425.18 31.59H418.79C418.868 32.406 419.063 33.042 419.375 33.498C419.687 33.954 420.08 34.275 420.554 34.461C421.028 34.647 421.544 34.74 422.102 34.74C422.51 34.74 422.936 34.698 423.38 34.614C423.824 34.53 424.244 34.398 424.64 34.218L424.856 35.496C424.514 35.646 424.097 35.799 423.605 35.955C423.113 36.105 422.546 36.18 421.904 36.18ZM418.934 30.474H423.578C423.578 30.06 423.5 29.7 423.344 29.394C423.188 29.088 422.951 28.854 422.633 28.692C422.315 28.524 421.91 28.44 421.418 28.44C420.698 28.44 420.143 28.62 419.753 28.98C419.369 29.334 419.096 29.832 418.934 30.474ZM429.387 36.18C428.607 36.18 427.959 36.087 427.443 35.901C426.933 35.715 426.573 35.55 426.363 35.406L426.561 33.84C426.753 34.008 427.092 34.2 427.578 34.416C428.064 34.632 428.643 34.74 429.315 34.74C429.885 34.74 430.32 34.644 430.62 34.452C430.926 34.26 431.079 33.99 431.079 33.642C431.079 33.336 430.98 33.09 430.782 32.904C430.59 32.712 430.356 32.562 430.08 32.454C429.81 32.34 429.555 32.25 429.315 32.184C428.913 32.076 428.496 31.941 428.064 31.779C427.638 31.611 427.278 31.362 426.984 31.032C426.69 30.702 426.543 30.24 426.543 29.646C426.543 29.196 426.651 28.77 426.867 28.368C427.083 27.96 427.434 27.63 427.92 27.378C428.406 27.126 429.051 27 429.855 27C430.443 27 430.92 27.063 431.286 27.189C431.658 27.309 431.979 27.438 432.249 27.576L432.051 29.052C431.793 28.836 431.493 28.653 431.151 28.503C430.809 28.353 430.389 28.278 429.891 28.278C429.387 28.278 428.976 28.374 428.658 28.566C428.34 28.752 428.181 29.052 428.181 29.466C428.181 29.88 428.349 30.174 428.685 30.348C429.027 30.522 429.543 30.714 430.233 30.924C430.449 30.984 430.698 31.071 430.98 31.185C431.268 31.299 431.547 31.452 431.817 31.644C432.087 31.836 432.309 32.088 432.483 32.4C432.663 32.706 432.753 33.09 432.753 33.552C432.753 33.942 432.66 34.341 432.474 34.749C432.288 35.151 431.952 35.49 431.466 35.766C430.98 36.042 430.287 36.18 429.387 36.18Z" fill="black"/>
<rect x="339.5" y="75.5" width="225" height="57" rx="10.5" fill="#DFDAFF"/>
<rect x="339.5" y="75.5" width="225" height="57" rx="10.5" stroke="#B7ADF1" stroke-width="3"/>
<path d="M369.04 110.252C368.518 110.252 367.996 110.213 367.474 110.135C366.952 110.057 366.469 109.958 366.025 109.838C365.581 109.712 365.212 109.58 364.918 109.442L365.152 107.624C365.476 107.78 365.866 107.942 366.322 108.11C366.784 108.278 367.282 108.419 367.816 108.533C368.35 108.647 368.89 108.704 369.436 108.704C370.246 108.704 370.888 108.557 371.362 108.263C371.842 107.963 372.082 107.498 372.082 106.868C372.082 106.394 371.962 106.007 371.722 105.707C371.482 105.401 371.119 105.14 370.633 104.924C370.153 104.708 369.55 104.492 368.824 104.276C368.134 104.072 367.498 103.832 366.916 103.556C366.334 103.274 365.866 102.899 365.512 102.431C365.164 101.957 364.99 101.33 364.99 100.55C364.99 99.884 365.161 99.296 365.503 98.786C365.851 98.27 366.358 97.868 367.024 97.58C367.696 97.292 368.518 97.148 369.49 97.148C370.318 97.148 371.077 97.238 371.767 97.418C372.463 97.598 373.036 97.796 373.486 98.012L373.306 99.83C372.622 99.422 371.968 99.131 371.344 98.957C370.726 98.783 370.084 98.696 369.418 98.696C368.68 98.696 368.068 98.834 367.582 99.11C367.102 99.386 366.862 99.836 366.862 100.46C366.862 100.88 366.97 101.225 367.186 101.495C367.402 101.759 367.723 101.987 368.149 102.179C368.575 102.365 369.106 102.554 369.742 102.746C370.618 103.01 371.371 103.313 372.001 103.655C372.631 103.991 373.114 104.408 373.45 104.906C373.786 105.398 373.954 106.01 373.954 106.742C373.954 107.282 373.852 107.768 373.648 108.2C373.444 108.632 373.138 109.001 372.73 109.307C372.322 109.613 371.809 109.847 371.191 110.009C370.579 110.171 369.862 110.252 369.04 110.252ZM378.388 110.18C377.83 110.18 377.383 110.078 377.047 109.874C376.711 109.67 376.465 109.409 376.309 109.091C376.159 108.767 376.084 108.428 376.084 108.074V102.44H374.572L374.716 101.18H376.084V99.002L377.704 98.84V101.18H380.026V102.44H377.704V107.084C377.704 107.648 377.737 108.056 377.803 108.308C377.869 108.56 378.031 108.719 378.289 108.785C378.553 108.851 378.976 108.884 379.558 108.884H379.972L379.846 110.18H378.388ZM381.411 110V101.18H382.743L382.941 102.638C383.391 102.08 383.82 101.669 384.228 101.405C384.642 101.135 385.083 101 385.551 101C385.701 101 385.839 101.018 385.965 101.054L385.803 102.836C385.725 102.818 385.641 102.806 385.551 102.8C385.467 102.788 385.371 102.782 385.263 102.782C384.795 102.782 384.363 102.887 383.967 103.097C383.577 103.301 383.301 103.526 383.139 103.772V110H381.411ZM391.107 110.18C390.069 110.18 389.196 109.967 388.488 109.541C387.78 109.115 387.243 108.551 386.877 107.849C386.517 107.141 386.337 106.364 386.337 105.518C386.337 104.696 386.505 103.943 386.841 103.259C387.183 102.575 387.675 102.029 388.317 101.621C388.965 101.207 389.745 101 390.657 101C391.389 101 392.04 101.147 392.61 101.441C393.186 101.729 393.636 102.152 393.96 102.71C394.29 103.262 394.455 103.934 394.455 104.726C394.455 104.852 394.449 104.99 394.437 105.14C394.431 105.284 394.413 105.434 394.383 105.59H387.993C388.071 106.406 388.266 107.042 388.578 107.498C388.89 107.954 389.283 108.275 389.757 108.461C390.231 108.647 390.747 108.74 391.305 108.74C391.713 108.74 392.139 108.698 392.583 108.614C393.027 108.53 393.447 108.398 393.843 108.218L394.059 109.496C393.717 109.646 393.3 109.799 392.808 109.955C392.316 110.105 391.749 110.18 391.107 110.18ZM388.137 104.474H392.781C392.781 104.06 392.703 103.7 392.547 103.394C392.391 103.088 392.154 102.854 391.836 102.692C391.518 102.524 391.113 102.44 390.621 102.44C389.901 102.44 389.346 102.62 388.956 102.98C388.572 103.334 388.299 103.832 388.137 104.474ZM398.59 110.18C397.81 110.18 397.162 110.087 396.646 109.901C396.136 109.715 395.776 109.55 395.566 109.406L395.764 107.84C395.956 108.008 396.295 108.2 396.781 108.416C397.267 108.632 397.846 108.74 398.518 108.74C399.088 108.74 399.523 108.644 399.823 108.452C400.129 108.26 400.282 107.99 400.282 107.642C400.282 107.336 400.183 107.09 399.985 106.904C399.793 106.712 399.559 106.562 399.283 106.454C399.013 106.34 398.758 106.25 398.518 106.184C398.116 106.076 397.699 105.941 397.267 105.779C396.841 105.611 396.481 105.362 396.187 105.032C395.893 104.702 395.746 104.24 395.746 103.646C395.746 103.196 395.854 102.77 396.07 102.368C396.286 101.96 396.637 101.63 397.123 101.378C397.609 101.126 398.254 101 399.058 101C399.646 101 400.123 101.063 400.489 101.189C400.861 101.309 401.182 101.438 401.452 101.576L401.254 103.052C400.996 102.836 400.696 102.653 400.354 102.503C400.012 102.353 399.592 102.278 399.094 102.278C398.59 102.278 398.179 102.374 397.861 102.566C397.543 102.752 397.384 103.052 397.384 103.466C397.384 103.88 397.552 104.174 397.888 104.348C398.23 104.522 398.746 104.714 399.436 104.924C399.652 104.984 399.901 105.071 400.183 105.185C400.471 105.299 400.75 105.452 401.02 105.644C401.29 105.836 401.512 106.088 401.686 106.4C401.866 106.706 401.956 107.09 401.956 107.552C401.956 107.942 401.863 108.341 401.677 108.749C401.491 109.151 401.155 109.49 400.669 109.766C400.183 110.042 399.49 110.18 398.59 110.18ZM406.043 110.18C405.263 110.18 404.615 110.087 404.099 109.901C403.589 109.715 403.229 109.55 403.019 109.406L403.217 107.84C403.409 108.008 403.748 108.2 404.234 108.416C404.72 108.632 405.299 108.74 405.971 108.74C406.541 108.74 406.976 108.644 407.276 108.452C407.582 108.26 407.735 107.99 407.735 107.642C407.735 107.336 407.636 107.09 407.438 106.904C407.246 106.712 407.012 106.562 406.736 106.454C406.466 106.34 406.211 106.25 405.971 106.184C405.569 106.076 405.152 105.941 404.72 105.779C404.294 105.611 403.934 105.362 403.64 105.032C403.346 104.702 403.199 104.24 403.199 103.646C403.199 103.196 403.307 102.77 403.523 102.368C403.739 101.96 404.09 101.63 404.576 101.378C405.062 101.126 405.707 101 406.511 101C407.099 101 407.576 101.063 407.942 101.189C408.314 101.309 408.635 101.438 408.905 101.576L408.707 103.052C408.449 102.836 408.149 102.653 407.807 102.503C407.465 102.353 407.045 102.278 406.547 102.278C406.043 102.278 405.632 102.374 405.314 102.566C404.996 102.752 404.837 103.052 404.837 103.466C404.837 103.88 405.005 104.174 405.341 104.348C405.683 104.522 406.199 104.714 406.889 104.924C407.105 104.984 407.354 105.071 407.636 105.185C407.924 105.299 408.203 105.452 408.473 105.644C408.743 105.836 408.965 106.088 409.139 106.4C409.319 106.706 409.409 107.09 409.409 107.552C409.409 107.942 409.316 108.341 409.13 108.749C408.944 109.151 408.608 109.49 408.122 109.766C407.636 110.042 406.943 110.18 406.043 110.18ZM415.649 110V102.44H414.119L414.335 101.18H415.649V99.092C415.649 98.306 415.859 97.679 416.279 97.211C416.699 96.737 417.317 96.5 418.133 96.5C418.433 96.5 418.694 96.521 418.916 96.563C419.144 96.605 419.351 96.662 419.537 96.734L419.285 98.102C419.141 98.048 419 98.009 418.862 97.985C418.724 97.955 418.565 97.94 418.385 97.94C418.037 97.94 417.764 98.039 417.566 98.237C417.368 98.429 417.269 98.75 417.269 99.2V101.18H419.645V102.44H417.269V110H415.649ZM420.996 110V101.18H422.328L422.526 102.638C422.976 102.08 423.405 101.669 423.813 101.405C424.227 101.135 424.668 101 425.136 101C425.286 101 425.424 101.018 425.55 101.054L425.388 102.836C425.31 102.818 425.226 102.806 425.136 102.8C425.052 102.788 424.956 102.782 424.848 102.782C424.38 102.782 423.948 102.887 423.552 103.097C423.162 103.301 422.886 103.526 422.724 103.772V110H420.996ZM430.315 110.18C429.391 110.18 428.602 109.976 427.948 109.568C427.3 109.154 426.802 108.602 426.454 107.912C426.112 107.216 425.941 106.442 425.941 105.59C425.941 104.738 426.112 103.967 426.454 103.277C426.802 102.581 427.3 102.029 427.948 101.621C428.602 101.207 429.391 101 430.315 101C431.233 101 432.019 101.207 432.673 101.621C433.327 102.029 433.825 102.581 434.167 103.277C434.515 103.967 434.689 104.738 434.689 105.59C434.689 106.442 434.515 107.216 434.167 107.912C433.825 108.602 433.327 109.154 432.673 109.568C432.019 109.976 431.233 110.18 430.315 110.18ZM430.315 108.74C431.191 108.74 431.863 108.464 432.331 107.912C432.799 107.354 433.033 106.58 433.033 105.59C433.033 104.6 432.799 103.829 432.331 103.277C431.863 102.719 431.191 102.44 430.315 102.44C429.445 102.44 428.773 102.719 428.299 103.277C427.831 103.829 427.597 104.6 427.597 105.59C427.597 106.58 427.831 107.354 428.299 107.912C428.773 108.464 429.445 108.74 430.315 108.74ZM436.36 110V101.18H437.62L437.944 102.872L437.332 102.584C437.884 101.99 438.421 101.579 438.943 101.351C439.465 101.117 440.014 101 440.59 101C441.022 101 441.436 101.072 441.832 101.216C442.234 101.354 442.594 101.6 442.912 101.954C443.236 102.302 443.494 102.788 443.686 103.412L443.236 103.214C443.5 102.53 443.905 101.99 444.451 101.594C444.997 101.198 445.732 101 446.656 101C447.394 101 448.015 101.138 448.519 101.414C449.023 101.684 449.401 102.101 449.653 102.665C449.911 103.223 450.04 103.934 450.04 104.798V110H448.42V104.816C448.42 103.988 448.258 103.385 447.934 103.007C447.61 102.629 447.082 102.44 446.35 102.44C445.834 102.44 445.42 102.521 445.108 102.683C444.796 102.839 444.559 103.043 444.397 103.295C444.241 103.547 444.136 103.814 444.082 104.096C444.034 104.378 444.01 104.642 444.01 104.888V110H442.39V105.14C442.39 104.42 442.303 103.865 442.129 103.475C441.955 103.085 441.712 102.815 441.4 102.665C441.088 102.515 440.728 102.44 440.32 102.44C439.726 102.44 439.195 102.572 438.727 102.836C438.259 103.094 437.944 103.508 437.782 104.078L437.98 103.196V110H436.36ZM457.952 110L455.306 101.18H457.214L458.906 108.218L460.778 101.45H462.452L464.342 108.218L466.034 101.18H467.942L465.278 110H463.46L461.624 103.484L459.77 110H457.952ZM472.995 110.18C472.071 110.18 471.282 109.976 470.628 109.568C469.98 109.154 469.482 108.602 469.134 107.912C468.792 107.216 468.621 106.442 468.621 105.59C468.621 104.738 468.792 103.967 469.134 103.277C469.482 102.581 469.98 102.029 470.628 101.621C471.282 101.207 472.071 101 472.995 101C473.913 101 474.699 101.207 475.353 101.621C476.007 102.029 476.505 102.581 476.847 103.277C477.195 103.967 477.369 104.738 477.369 105.59C477.369 106.442 477.195 107.216 476.847 107.912C476.505 108.602 476.007 109.154 475.353 109.568C474.699 109.976 473.913 110.18 472.995 110.18ZM472.995 108.74C473.871 108.74 474.543 108.464 475.011 107.912C475.479 107.354 475.713 106.58 475.713 105.59C475.713 104.6 475.479 103.829 475.011 103.277C474.543 102.719 473.871 102.44 472.995 102.44C472.125 102.44 471.453 102.719 470.979 103.277C470.511 103.829 470.277 104.6 470.277 105.59C470.277 106.58 470.511 107.354 470.979 107.912C471.453 108.464 472.125 108.74 472.995 108.74ZM479.039 110V101.18H480.371L480.569 102.638C481.019 102.08 481.448 101.669 481.856 101.405C482.27 101.135 482.711 101 483.179 101C483.329 101 483.467 101.018 483.593 101.054L483.431 102.836C483.353 102.818 483.269 102.806 483.179 102.8C483.095 102.788 482.999 102.782 482.891 102.782C482.423 102.782 481.991 102.887 481.595 103.097C481.205 103.301 480.929 103.526 480.767 103.772V110H479.039ZM484.717 110V96.5H486.337V105.158L489.577 101.18H491.557L488.047 105.284L491.647 110H489.667L486.337 105.518V110H484.717Z" fill="black"/>
<rect x="339.5" y="149.5" width="225" height="57" rx="10.5" fill="#E0EEFF"/>
<rect x="339.5" y="149.5" width="225" height="57" rx="10.5" stroke="#ACD0FB" stroke-width="3"/>
<path d="M365.44 184V171.4H369.418C370.546 171.4 371.431 171.655 372.073 172.165C372.715 172.669 373.036 173.44 373.036 174.478C373.036 175.18 372.883 175.798 372.577 176.332C372.271 176.866 371.812 177.214 371.2 177.376L371.452 177.088C372.328 177.232 373.006 177.583 373.486 178.141C373.966 178.693 374.206 179.446 374.206 180.4C374.206 181.504 373.849 182.38 373.135 183.028C372.427 183.676 371.446 184 370.192 184H365.44ZM367.15 182.452H370.048C370.744 182.452 371.299 182.278 371.713 181.93C372.127 181.582 372.334 181.054 372.334 180.346C372.334 179.554 372.121 178.996 371.695 178.672C371.275 178.348 370.726 178.186 370.048 178.186H367.15V182.452ZM367.15 176.638H369.202C369.814 176.638 370.312 176.515 370.696 176.269C371.08 176.023 371.272 175.528 371.272 174.784C371.272 174.046 371.08 173.554 370.696 173.308C370.312 173.056 369.814 172.93 369.202 172.93H367.15V176.638ZM378.918 184.18C378.228 184.18 377.64 184.042 377.154 183.766C376.668 183.484 376.296 183.058 376.038 182.488C375.786 181.918 375.66 181.192 375.66 180.31V175.18H377.28V179.86C377.28 180.796 377.439 181.51 377.757 182.002C378.081 182.494 378.606 182.74 379.332 182.74C379.83 182.74 380.292 182.62 380.718 182.38C381.144 182.14 381.438 181.756 381.6 181.228L381.366 182.11V175.18H382.986V184H381.546L381.222 182.272L381.654 182.56C381.36 183.106 381 183.514 380.574 183.784C380.154 184.048 379.602 184.18 378.918 184.18ZM385.19 184V175.18H386.522L386.72 176.638C387.17 176.08 387.599 175.669 388.007 175.405C388.421 175.135 388.862 175 389.33 175C389.48 175 389.618 175.018 389.744 175.054L389.582 176.836C389.504 176.818 389.42 176.806 389.33 176.8C389.246 176.788 389.15 176.782 389.042 176.782C388.574 176.782 388.142 176.887 387.746 177.097C387.356 177.301 387.08 177.526 386.918 177.772V184H385.19ZM390.885 184V175.18H392.145L392.469 176.872L391.839 176.602C392.433 175.942 393.012 175.51 393.576 175.306C394.146 175.102 394.701 175 395.241 175C396.531 175 397.452 175.372 398.004 176.116C398.562 176.86 398.841 177.868 398.841 179.14V184H397.221V179.14C397.221 178.204 397.047 177.52 396.699 177.088C396.351 176.656 395.757 176.44 394.917 176.44C394.323 176.44 393.777 176.572 393.279 176.836C392.787 177.094 392.463 177.508 392.307 178.078L392.505 177.088V184H390.885ZM404.792 184.18C403.868 184.18 403.079 183.976 402.425 183.568C401.777 183.154 401.279 182.602 400.931 181.912C400.589 181.216 400.418 180.442 400.418 179.59C400.418 178.738 400.589 177.967 400.931 177.277C401.279 176.581 401.777 176.029 402.425 175.621C403.079 175.207 403.868 175 404.792 175C405.71 175 406.496 175.207 407.15 175.621C407.804 176.029 408.302 176.581 408.644 177.277C408.992 177.967 409.166 178.738 409.166 179.59C409.166 180.442 408.992 181.216 408.644 181.912C408.302 182.602 407.804 183.154 407.15 183.568C406.496 183.976 405.71 184.18 404.792 184.18ZM404.792 182.74C405.668 182.74 406.34 182.464 406.808 181.912C407.276 181.354 407.51 180.58 407.51 179.59C407.51 178.6 407.276 177.829 406.808 177.277C406.34 176.719 405.668 176.44 404.792 176.44C403.922 176.44 403.25 176.719 402.776 177.277C402.308 177.829 402.074 178.6 402.074 179.59C402.074 180.58 402.308 181.354 402.776 181.912C403.25 182.464 403.922 182.74 404.792 182.74ZM414.004 184.18C413.314 184.18 412.726 184.042 412.24 183.766C411.754 183.484 411.382 183.058 411.124 182.488C410.872 181.918 410.746 181.192 410.746 180.31V175.18H412.366V179.86C412.366 180.796 412.525 181.51 412.843 182.002C413.167 182.494 413.692 182.74 414.418 182.74C414.916 182.74 415.378 182.62 415.804 182.38C416.23 182.14 416.524 181.756 416.686 181.228L416.452 182.11V175.18H418.072V184H416.632L416.308 182.272L416.74 182.56C416.446 183.106 416.086 183.514 415.66 183.784C415.24 184.048 414.688 184.18 414.004 184.18ZM423.318 184.18C422.76 184.18 422.313 184.078 421.977 183.874C421.641 183.67 421.395 183.409 421.239 183.091C421.089 182.767 421.014 182.428 421.014 182.074V176.44H419.502L419.646 175.18H421.014V173.002L422.634 172.84V175.18H424.956V176.44H422.634V181.084C422.634 181.648 422.667 182.056 422.733 182.308C422.799 182.56 422.961 182.719 423.219 182.785C423.483 182.851 423.906 182.884 424.488 182.884H424.902L424.776 184.18H423.318Z" fill="black"/>
<rect x="339.5" y="233.5" width="225" height="57" rx="10.5" fill="#E6FFFA"/>
<rect x="339.5" y="233.5" width="225" height="57" rx="10.5" stroke="#ACFBED" stroke-width="3"/>
<path d="M365.44 268V255.4H373.126V256.948H367.15V260.638H371.758V262.186H367.15V268H365.44ZM374.397 268V259.18H376.017V268H374.397ZM374.397 257.2V255.4H376.017V257.2H374.397ZM378.211 268V259.18H379.471L379.795 260.872L379.165 260.602C379.759 259.942 380.338 259.51 380.902 259.306C381.472 259.102 382.027 259 382.567 259C383.857 259 384.778 259.372 385.33 260.116C385.888 260.86 386.167 261.868 386.167 263.14V268H384.547V263.14C384.547 262.204 384.373 261.52 384.025 261.088C383.677 260.656 383.083 260.44 382.243 260.44C381.649 260.44 381.103 260.572 380.605 260.836C380.113 261.094 379.789 261.508 379.633 262.078L379.831 261.088V268H378.211ZM390.318 268.18C389.772 268.18 389.295 268.069 388.887 267.847C388.479 267.625 388.161 267.322 387.933 266.938C387.711 266.554 387.6 266.116 387.6 265.624C387.6 265.126 387.708 264.7 387.924 264.346C388.146 263.986 388.44 263.689 388.806 263.455C389.178 263.215 389.592 263.026 390.048 262.888C390.504 262.744 390.975 262.642 391.461 262.582C391.953 262.516 392.424 262.48 392.874 262.474C392.874 261.634 392.709 261.085 392.379 260.827C392.049 260.569 391.572 260.44 390.948 260.44C390.618 260.44 390.264 260.491 389.886 260.593C389.514 260.695 389.094 260.908 388.626 261.232L388.392 259.918C388.746 259.648 389.187 259.429 389.715 259.261C390.243 259.087 390.798 259 391.38 259C392.124 259 392.724 259.132 393.18 259.396C393.636 259.654 393.969 260.092 394.179 260.71C394.389 261.328 394.494 262.168 394.494 263.23V265.03C394.494 265.45 394.512 265.798 394.548 266.074C394.59 266.344 394.68 266.548 394.818 266.686C394.962 266.818 395.19 266.884 395.502 266.884H395.664L395.412 268.18H395.286C394.764 268.18 394.359 268.129 394.071 268.027C393.789 267.925 393.573 267.778 393.423 267.586C393.273 267.394 393.138 267.16 393.018 266.884C392.688 267.268 392.298 267.58 391.848 267.82C391.398 268.06 390.888 268.18 390.318 268.18ZM390.624 266.884C391.056 266.884 391.473 266.776 391.875 266.56C392.283 266.344 392.616 266.056 392.874 265.696V263.59C392.016 263.62 391.32 263.704 390.786 263.842C390.258 263.98 389.871 264.187 389.625 264.463C389.379 264.739 389.256 265.096 389.256 265.534C389.256 266.008 389.382 266.353 389.634 266.569C389.892 266.779 390.222 266.884 390.624 266.884ZM396.914 268V259.18H398.174L398.498 260.872L397.868 260.602C398.462 259.942 399.041 259.51 399.605 259.306C400.175 259.102 400.73 259 401.27 259C402.56 259 403.481 259.372 404.033 260.116C404.591 260.86 404.87 261.868 404.87 263.14V268H403.25V263.14C403.25 262.204 403.076 261.52 402.728 261.088C402.38 260.656 401.786 260.44 400.946 260.44C400.352 260.44 399.806 260.572 399.308 260.836C398.816 261.094 398.492 261.508 398.336 262.078L398.534 261.088V268H396.914ZM411.019 268.18C410.023 268.18 409.186 267.979 408.508 267.577C407.836 267.169 407.326 266.623 406.978 265.939C406.636 265.249 406.465 264.484 406.465 263.644C406.465 262.768 406.63 261.979 406.96 261.277C407.296 260.575 407.809 260.02 408.499 259.612C409.189 259.204 410.071 259 411.145 259C411.607 259 412.042 259.048 412.45 259.144C412.864 259.234 413.233 259.36 413.557 259.522L413.305 260.944C412.975 260.788 412.624 260.665 412.252 260.575C411.886 260.485 411.505 260.44 411.109 260.44C410.137 260.44 409.396 260.716 408.886 261.268C408.376 261.82 408.121 262.588 408.121 263.572C408.121 264.532 408.364 265.303 408.85 265.885C409.336 266.467 410.077 266.758 411.073 266.758C411.481 266.758 411.871 266.71 412.243 266.614C412.621 266.518 412.981 266.386 413.323 266.218L413.539 267.514C413.299 267.682 412.948 267.835 412.486 267.973C412.024 268.111 411.535 268.18 411.019 268.18ZM415.143 268V259.18H416.763V268H415.143ZM415.143 257.2V255.4H416.763V257.2H415.143ZM421.009 268.18C420.463 268.18 419.986 268.069 419.578 267.847C419.17 267.625 418.852 267.322 418.624 266.938C418.402 266.554 418.291 266.116 418.291 265.624C418.291 265.126 418.399 264.7 418.615 264.346C418.837 263.986 419.131 263.689 419.497 263.455C419.869 263.215 420.283 263.026 420.739 262.888C421.195 262.744 421.666 262.642 422.152 262.582C422.644 262.516 423.115 262.48 423.565 262.474C423.565 261.634 423.4 261.085 423.07 260.827C422.74 260.569 422.263 260.44 421.639 260.44C421.309 260.44 420.955 260.491 420.577 260.593C420.205 260.695 419.785 260.908 419.317 261.232L419.083 259.918C419.437 259.648 419.878 259.429 420.406 259.261C420.934 259.087 421.489 259 422.071 259C422.815 259 423.415 259.132 423.871 259.396C424.327 259.654 424.66 260.092 424.87 260.71C425.08 261.328 425.185 262.168 425.185 263.23V265.03C425.185 265.45 425.203 265.798 425.239 266.074C425.281 266.344 425.371 266.548 425.509 266.686C425.653 266.818 425.881 266.884 426.193 266.884H426.355L426.103 268.18H425.977C425.455 268.18 425.05 268.129 424.762 268.027C424.48 267.925 424.264 267.778 424.114 267.586C423.964 267.394 423.829 267.16 423.709 266.884C423.379 267.268 422.989 267.58 422.539 267.82C422.089 268.06 421.579 268.18 421.009 268.18ZM421.315 266.884C421.747 266.884 422.164 266.776 422.566 266.56C422.974 266.344 423.307 266.056 423.565 265.696V263.59C422.707 263.62 422.011 263.704 421.477 263.842C420.949 263.98 420.562 264.187 420.316 264.463C420.07 264.739 419.947 265.096 419.947 265.534C419.947 266.008 420.073 266.353 420.325 266.569C420.583 266.779 420.913 266.884 421.315 266.884ZM429.874 268.18C429.304 268.18 428.851 268.078 428.515 267.874C428.185 267.664 427.948 267.397 427.804 267.073C427.66 266.749 427.588 266.41 427.588 266.056V254.5H429.208V265.12C429.208 265.624 429.241 266.002 429.307 266.254C429.373 266.506 429.505 266.674 429.703 266.758C429.907 266.842 430.216 266.884 430.63 266.884L430.396 268.18H429.874ZM437.667 268L435.021 259.18H436.929L438.621 266.218L440.493 259.45H442.167L444.057 266.218L445.749 259.18H447.657L444.993 268H443.175L441.339 261.484L439.485 268H437.667ZM452.71 268.18C451.786 268.18 450.997 267.976 450.343 267.568C449.695 267.154 449.197 266.602 448.849 265.912C448.507 265.216 448.336 264.442 448.336 263.59C448.336 262.738 448.507 261.967 448.849 261.277C449.197 260.581 449.695 260.029 450.343 259.621C450.997 259.207 451.786 259 452.71 259C453.628 259 454.414 259.207 455.068 259.621C455.722 260.029 456.22 260.581 456.562 261.277C456.91 261.967 457.084 262.738 457.084 263.59C457.084 264.442 456.91 265.216 456.562 265.912C456.22 266.602 455.722 267.154 455.068 267.568C454.414 267.976 453.628 268.18 452.71 268.18ZM452.71 266.74C453.586 266.74 454.258 266.464 454.726 265.912C455.194 265.354 455.428 264.58 455.428 263.59C455.428 262.6 455.194 261.829 454.726 261.277C454.258 260.719 453.586 260.44 452.71 260.44C451.84 260.44 451.168 260.719 450.694 261.277C450.226 261.829 449.992 262.6 449.992 263.59C449.992 264.58 450.226 265.354 450.694 265.912C451.168 266.464 451.84 266.74 452.71 266.74ZM458.754 268V259.18H460.086L460.284 260.638C460.734 260.08 461.163 259.669 461.571 259.405C461.985 259.135 462.426 259 462.894 259C463.044 259 463.182 259.018 463.308 259.054L463.146 260.836C463.068 260.818 462.984 260.806 462.894 260.8C462.81 260.788 462.714 260.782 462.606 260.782C462.138 260.782 461.706 260.887 461.31 261.097C460.92 261.301 460.644 261.526 460.482 261.772V268H458.754ZM464.45 268V259.18H465.782L465.98 260.638C466.43 260.08 466.859 259.669 467.267 259.405C467.681 259.135 468.122 259 468.59 259C468.74 259 468.878 259.018 469.004 259.054L468.842 260.836C468.764 260.818 468.68 260.806 468.59 260.8C468.506 260.788 468.41 260.782 468.302 260.782C467.834 260.782 467.402 260.887 467.006 261.097C466.616 261.301 466.34 261.526 466.178 261.772V268H464.45ZM470.145 268V259.18H471.765V268H470.145ZM470.145 257.2V255.4H471.765V257.2H470.145ZM478.189 268.18C477.151 268.18 476.278 267.967 475.57 267.541C474.862 267.115 474.325 266.551 473.959 265.849C473.599 265.141 473.419 264.364 473.419 263.518C473.419 262.696 473.587 261.943 473.923 261.259C474.265 260.575 474.757 260.029 475.399 259.621C476.047 259.207 476.827 259 477.739 259C478.471 259 479.122 259.147 479.692 259.441C480.268 259.729 480.718 260.152 481.042 260.71C481.372 261.262 481.537 261.934 481.537 262.726C481.537 262.852 481.531 262.99 481.519 263.14C481.513 263.284 481.495 263.434 481.465 263.59H475.075C475.153 264.406 475.348 265.042 475.66 265.498C475.972 265.954 476.365 266.275 476.839 266.461C477.313 266.647 477.829 266.74 478.387 266.74C478.795 266.74 479.221 266.698 479.665 266.614C480.109 266.53 480.529 266.398 480.925 266.218L481.141 267.496C480.799 267.646 480.382 267.799 479.89 267.955C479.398 268.105 478.831 268.18 478.189 268.18ZM475.219 262.474H479.863C479.863 262.06 479.785 261.7 479.629 261.394C479.473 261.088 479.236 260.854 478.918 260.692C478.6 260.524 478.195 260.44 477.703 260.44C476.983 260.44 476.428 260.62 476.038 260.98C475.654 261.334 475.381 261.832 475.219 262.474ZM485.672 268.18C484.892 268.18 484.244 268.087 483.728 267.901C483.218 267.715 482.858 267.55 482.648 267.406L482.846 265.84C483.038 266.008 483.377 266.2 483.863 266.416C484.349 266.632 484.928 266.74 485.6 266.74C486.17 266.74 486.605 266.644 486.905 266.452C487.211 266.26 487.364 265.99 487.364 265.642C487.364 265.336 487.265 265.09 487.067 264.904C486.875 264.712 486.641 264.562 486.365 264.454C486.095 264.34 485.84 264.25 485.6 264.184C485.198 264.076 484.781 263.941 484.349 263.779C483.923 263.611 483.563 263.362 483.269 263.032C482.975 262.702 482.828 262.24 482.828 261.646C482.828 261.196 482.936 260.77 483.152 260.368C483.368 259.96 483.719 259.63 484.205 259.378C484.691 259.126 485.336 259 486.14 259C486.728 259 487.205 259.063 487.571 259.189C487.943 259.309 488.264 259.438 488.534 259.576L488.336 261.052C488.078 260.836 487.778 260.653 487.436 260.503C487.094 260.353 486.674 260.278 486.176 260.278C485.672 260.278 485.261 260.374 484.943 260.566C484.625 260.752 484.466 261.052 484.466 261.466C484.466 261.88 484.634 262.174 484.97 262.348C485.312 262.522 485.828 262.714 486.518 262.924C486.734 262.984 486.983 263.071 487.265 263.185C487.553 263.299 487.832 263.452 488.102 263.644C488.372 263.836 488.594 264.088 488.768 264.4C488.948 264.706 489.038 265.09 489.038 265.552C489.038 265.942 488.945 266.341 488.759 266.749C488.573 267.151 488.237 267.49 487.751 267.766C487.265 268.042 486.572 268.18 485.672 268.18Z" fill="black"/>
<rect x="339.5" y="380.5" width="225" height="57" rx="10.5" fill="#FFF1CE"/>
<rect x="339.5" y="380.5" width="225" height="57" rx="10.5" stroke="#F4D689" stroke-width="3"/>
<path d="M369.04 415.252C368.518 415.252 367.996 415.213 367.474 415.135C366.952 415.057 366.469 414.958 366.025 414.838C365.581 414.712 365.212 414.58 364.918 414.442L365.152 412.624C365.476 412.78 365.866 412.942 366.322 413.11C366.784 413.278 367.282 413.419 367.816 413.533C368.35 413.647 368.89 413.704 369.436 413.704C370.246 413.704 370.888 413.557 371.362 413.263C371.842 412.963 372.082 412.498 372.082 411.868C372.082 411.394 371.962 411.007 371.722 410.707C371.482 410.401 371.119 410.14 370.633 409.924C370.153 409.708 369.55 409.492 368.824 409.276C368.134 409.072 367.498 408.832 366.916 408.556C366.334 408.274 365.866 407.899 365.512 407.431C365.164 406.957 364.99 406.33 364.99 405.55C364.99 404.884 365.161 404.296 365.503 403.786C365.851 403.27 366.358 402.868 367.024 402.58C367.696 402.292 368.518 402.148 369.49 402.148C370.318 402.148 371.077 402.238 371.767 402.418C372.463 402.598 373.036 402.796 373.486 403.012L373.306 404.83C372.622 404.422 371.968 404.131 371.344 403.957C370.726 403.783 370.084 403.696 369.418 403.696C368.68 403.696 368.068 403.834 367.582 404.11C367.102 404.386 366.862 404.836 366.862 405.46C366.862 405.88 366.97 406.225 367.186 406.495C367.402 406.759 367.723 406.987 368.149 407.179C368.575 407.365 369.106 407.554 369.742 407.746C370.618 408.01 371.371 408.313 372.001 408.655C372.631 408.991 373.114 409.408 373.45 409.906C373.786 410.398 373.954 411.01 373.954 411.742C373.954 412.282 373.852 412.768 373.648 413.2C373.444 413.632 373.138 414.001 372.73 414.307C372.322 414.613 371.809 414.847 371.191 415.009C370.579 415.171 369.862 415.252 369.04 415.252ZM377.772 415.18C377.202 415.18 376.749 415.078 376.413 414.874C376.083 414.664 375.846 414.397 375.702 414.073C375.558 413.749 375.486 413.41 375.486 413.056V401.5H377.106V412.12C377.106 412.624 377.139 413.002 377.205 413.254C377.271 413.506 377.403 413.674 377.601 413.758C377.805 413.842 378.114 413.884 378.528 413.884L378.294 415.18H377.772ZM383.9 415.18C382.862 415.18 381.989 414.967 381.281 414.541C380.573 414.115 380.036 413.551 379.67 412.849C379.31 412.141 379.13 411.364 379.13 410.518C379.13 409.696 379.298 408.943 379.634 408.259C379.976 407.575 380.468 407.029 381.11 406.621C381.758 406.207 382.538 406 383.45 406C384.182 406 384.833 406.147 385.403 406.441C385.979 406.729 386.429 407.152 386.753 407.71C387.083 408.262 387.248 408.934 387.248 409.726C387.248 409.852 387.242 409.99 387.23 410.14C387.224 410.284 387.206 410.434 387.176 410.59H380.786C380.864 411.406 381.059 412.042 381.371 412.498C381.683 412.954 382.076 413.275 382.55 413.461C383.024 413.647 383.54 413.74 384.098 413.74C384.506 413.74 384.932 413.698 385.376 413.614C385.82 413.53 386.24 413.398 386.636 413.218L386.852 414.496C386.51 414.646 386.093 414.799 385.601 414.955C385.109 415.105 384.542 415.18 383.9 415.18ZM380.93 409.474H385.574C385.574 409.06 385.496 408.7 385.34 408.394C385.184 408.088 384.947 407.854 384.629 407.692C384.311 407.524 383.906 407.44 383.414 407.44C382.694 407.44 382.139 407.62 381.749 407.98C381.365 408.334 381.092 408.832 380.93 409.474ZM393.111 415.18C392.073 415.18 391.2 414.967 390.492 414.541C389.784 414.115 389.247 413.551 388.881 412.849C388.521 412.141 388.341 411.364 388.341 410.518C388.341 409.696 388.509 408.943 388.845 408.259C389.187 407.575 389.679 407.029 390.321 406.621C390.969 406.207 391.749 406 392.661 406C393.393 406 394.044 406.147 394.614 406.441C395.19 406.729 395.64 407.152 395.964 407.71C396.294 408.262 396.459 408.934 396.459 409.726C396.459 409.852 396.453 409.99 396.441 410.14C396.435 410.284 396.417 410.434 396.387 410.59H389.997C390.075 411.406 390.27 412.042 390.582 412.498C390.894 412.954 391.287 413.275 391.761 413.461C392.235 413.647 392.751 413.74 393.309 413.74C393.717 413.74 394.143 413.698 394.587 413.614C395.031 413.53 395.451 413.398 395.847 413.218L396.063 414.496C395.721 414.646 395.304 414.799 394.812 414.955C394.32 415.105 393.753 415.18 393.111 415.18ZM390.141 409.474H394.785C394.785 409.06 394.707 408.7 394.551 408.394C394.395 408.088 394.158 407.854 393.84 407.692C393.522 407.524 393.117 407.44 392.625 407.44C391.905 407.44 391.35 407.62 390.96 407.98C390.576 408.334 390.303 408.832 390.141 409.474ZM398.092 419.356V406.18H399.352L399.64 408.196L399.19 407.872C399.562 407.296 400.021 406.84 400.567 406.504C401.113 406.168 401.782 406 402.574 406C403.378 406 404.068 406.204 404.644 406.612C405.22 407.02 405.661 407.572 405.967 408.268C406.273 408.958 406.426 409.732 406.426 410.59C406.426 411.448 406.282 412.225 405.994 412.921C405.706 413.611 405.277 414.16 404.707 414.568C404.137 414.976 403.426 415.18 402.574 415.18C401.872 415.18 401.236 415.036 400.666 414.748C400.102 414.454 399.694 414.016 399.442 413.434L399.712 413.11V419.356H398.092ZM402.268 413.74C403.054 413.74 403.666 413.464 404.104 412.912C404.548 412.354 404.77 411.58 404.77 410.59C404.77 409.6 404.548 408.829 404.104 408.277C403.666 407.719 403.054 407.44 402.268 407.44C401.782 407.44 401.338 407.557 400.936 407.791C400.54 408.019 400.222 408.367 399.982 408.835C399.742 409.297 399.622 409.882 399.622 410.59C399.622 411.328 399.742 411.928 399.982 412.39C400.222 412.852 400.54 413.194 400.936 413.416C401.338 413.632 401.782 413.74 402.268 413.74ZM408.04 410.176V408.628H413.62V410.176H408.04ZM415.741 415V406.18H417.073L417.271 407.638C417.721 407.08 418.15 406.669 418.558 406.405C418.972 406.135 419.413 406 419.881 406C420.031 406 420.169 406.018 420.295 406.054L420.133 407.836C420.055 407.818 419.971 407.806 419.881 407.8C419.797 407.788 419.701 407.782 419.593 407.782C419.125 407.782 418.693 407.887 418.297 408.097C417.907 408.301 417.631 408.526 417.469 408.772V415H415.741ZM425.437 415.18C424.399 415.18 423.526 414.967 422.818 414.541C422.11 414.115 421.573 413.551 421.207 412.849C420.847 412.141 420.667 411.364 420.667 410.518C420.667 409.696 420.835 408.943 421.171 408.259C421.513 407.575 422.005 407.029 422.647 406.621C423.295 406.207 424.075 406 424.987 406C425.719 406 426.37 406.147 426.94 406.441C427.516 406.729 427.966 407.152 428.29 407.71C428.62 408.262 428.785 408.934 428.785 409.726C428.785 409.852 428.779 409.99 428.767 410.14C428.761 410.284 428.743 410.434 428.713 410.59H422.323C422.401 411.406 422.596 412.042 422.908 412.498C423.22 412.954 423.613 413.275 424.087 413.461C424.561 413.647 425.077 413.74 425.635 413.74C426.043 413.74 426.469 413.698 426.913 413.614C427.357 413.53 427.777 413.398 428.173 413.218L428.389 414.496C428.047 414.646 427.63 414.799 427.138 414.955C426.646 415.105 426.079 415.18 425.437 415.18ZM422.467 409.474H427.111C427.111 409.06 427.033 408.7 426.877 408.394C426.721 408.088 426.484 407.854 426.166 407.692C425.848 407.524 425.443 407.44 424.951 407.44C424.231 407.44 423.676 407.62 423.286 407.98C422.902 408.334 422.629 408.832 422.467 409.474ZM432.686 415.18C432.116 415.18 431.663 415.078 431.327 414.874C430.997 414.664 430.76 414.397 430.616 414.073C430.472 413.749 430.4 413.41 430.4 413.056V401.5H432.02V412.12C432.02 412.624 432.053 413.002 432.119 413.254C432.185 413.506 432.317 413.674 432.515 413.758C432.719 413.842 433.028 413.884 433.442 413.884L433.208 415.18H432.686ZM436.724 415.18C436.178 415.18 435.701 415.069 435.293 414.847C434.885 414.625 434.567 414.322 434.339 413.938C434.117 413.554 434.006 413.116 434.006 412.624C434.006 412.126 434.114 411.7 434.33 411.346C434.552 410.986 434.846 410.689 435.212 410.455C435.584 410.215 435.998 410.026 436.454 409.888C436.91 409.744 437.381 409.642 437.867 409.582C438.359 409.516 438.83 409.48 439.28 409.474C439.28 408.634 439.115 408.085 438.785 407.827C438.455 407.569 437.978 407.44 437.354 407.44C437.024 407.44 436.67 407.491 436.292 407.593C435.92 407.695 435.5 407.908 435.032 408.232L434.798 406.918C435.152 406.648 435.593 406.429 436.121 406.261C436.649 406.087 437.204 406 437.786 406C438.53 406 439.13 406.132 439.586 406.396C440.042 406.654 440.375 407.092 440.585 407.71C440.795 408.328 440.9 409.168 440.9 410.23V412.03C440.9 412.45 440.918 412.798 440.954 413.074C440.996 413.344 441.086 413.548 441.224 413.686C441.368 413.818 441.596 413.884 441.908 413.884H442.07L441.818 415.18H441.692C441.17 415.18 440.765 415.129 440.477 415.027C440.195 414.925 439.979 414.778 439.829 414.586C439.679 414.394 439.544 414.16 439.424 413.884C439.094 414.268 438.704 414.58 438.254 414.82C437.804 415.06 437.294 415.18 436.724 415.18ZM437.03 413.884C437.462 413.884 437.879 413.776 438.281 413.56C438.689 413.344 439.022 413.056 439.28 412.696V410.59C438.422 410.62 437.726 410.704 437.192 410.842C436.664 410.98 436.277 411.187 436.031 411.463C435.785 411.739 435.662 412.096 435.662 412.534C435.662 413.008 435.788 413.353 436.04 413.569C436.298 413.779 436.628 413.884 437.03 413.884ZM446.187 415.18C445.629 415.18 445.182 415.078 444.846 414.874C444.51 414.67 444.264 414.409 444.108 414.091C443.958 413.767 443.883 413.428 443.883 413.074V407.44H442.371L442.515 406.18H443.883V404.002L445.503 403.84V406.18H447.825V407.44H445.503V412.084C445.503 412.648 445.536 413.056 445.602 413.308C445.668 413.56 445.83 413.719 446.088 413.785C446.352 413.851 446.775 413.884 447.357 413.884H447.771L447.645 415.18H446.187ZM453.369 415.18C452.331 415.18 451.458 414.967 450.75 414.541C450.042 414.115 449.505 413.551 449.139 412.849C448.779 412.141 448.599 411.364 448.599 410.518C448.599 409.696 448.767 408.943 449.103 408.259C449.445 407.575 449.937 407.029 450.579 406.621C451.227 406.207 452.007 406 452.919 406C453.651 406 454.302 406.147 454.872 406.441C455.448 406.729 455.898 407.152 456.222 407.71C456.552 408.262 456.717 408.934 456.717 409.726C456.717 409.852 456.711 409.99 456.699 410.14C456.693 410.284 456.675 410.434 456.645 410.59H450.255C450.333 411.406 450.528 412.042 450.84 412.498C451.152 412.954 451.545 413.275 452.019 413.461C452.493 413.647 453.009 413.74 453.567 413.74C453.975 413.74 454.401 413.698 454.845 413.614C455.289 413.53 455.709 413.398 456.105 413.218L456.321 414.496C455.979 414.646 455.562 414.799 455.07 414.955C454.578 415.105 454.011 415.18 453.369 415.18ZM450.399 409.474H455.043C455.043 409.06 454.965 408.7 454.809 408.394C454.653 408.088 454.416 407.854 454.098 407.692C453.78 407.524 453.375 407.44 452.883 407.44C452.163 407.44 451.608 407.62 451.218 407.98C450.834 408.334 450.561 408.832 450.399 409.474ZM461.842 415.18C461.092 415.18 460.414 414.976 459.808 414.568C459.202 414.16 458.719 413.611 458.359 412.921C458.005 412.231 457.828 411.46 457.828 410.608C457.828 409.798 457.99 409.042 458.314 408.34C458.644 407.638 459.109 407.074 459.709 406.648C460.309 406.216 461.02 406 461.842 406C462.43 406 462.997 406.129 463.543 406.387C464.095 406.639 464.542 407.062 464.884 407.656L464.542 407.89V401.5H466.162V415H464.722L464.416 413.128L464.83 413.416C464.572 413.998 464.167 414.439 463.615 414.739C463.063 415.033 462.472 415.18 461.842 415.18ZM462.13 413.74C462.538 413.74 462.94 413.635 463.336 413.425C463.738 413.215 464.068 412.882 464.326 412.426C464.59 411.964 464.722 411.358 464.722 410.608C464.722 409.912 464.59 409.33 464.326 408.862C464.068 408.388 463.738 408.034 463.336 407.8C462.94 407.56 462.538 407.44 462.13 407.44C461.578 407.44 461.104 407.578 460.708 407.854C460.312 408.13 460.009 408.508 459.799 408.988C459.589 409.462 459.484 410.002 459.484 410.608C459.484 411.178 459.589 411.7 459.799 412.174C460.009 412.648 460.312 413.029 460.708 413.317C461.104 413.599 461.578 413.74 462.13 413.74ZM474.879 415.18C474.099 415.18 473.451 415.087 472.935 414.901C472.425 414.715 472.065 414.55 471.855 414.406L472.053 412.84C472.245 413.008 472.584 413.2 473.07 413.416C473.556 413.632 474.135 413.74 474.807 413.74C475.377 413.74 475.812 413.644 476.112 413.452C476.418 413.26 476.571 412.99 476.571 412.642C476.571 412.336 476.472 412.09 476.274 411.904C476.082 411.712 475.848 411.562 475.572 411.454C475.302 411.34 475.047 411.25 474.807 411.184C474.405 411.076 473.988 410.941 473.556 410.779C473.13 410.611 472.77 410.362 472.476 410.032C472.182 409.702 472.035 409.24 472.035 408.646C472.035 408.196 472.143 407.77 472.359 407.368C472.575 406.96 472.926 406.63 473.412 406.378C473.898 406.126 474.543 406 475.347 406C475.935 406 476.412 406.063 476.778 406.189C477.15 406.309 477.471 406.438 477.741 406.576L477.543 408.052C477.285 407.836 476.985 407.653 476.643 407.503C476.301 407.353 475.881 407.278 475.383 407.278C474.879 407.278 474.468 407.374 474.15 407.566C473.832 407.752 473.673 408.052 473.673 408.466C473.673 408.88 473.841 409.174 474.177 409.348C474.519 409.522 475.035 409.714 475.725 409.924C475.941 409.984 476.19 410.071 476.472 410.185C476.76 410.299 477.039 410.452 477.309 410.644C477.579 410.836 477.801 411.088 477.975 411.4C478.155 411.706 478.245 412.09 478.245 412.552C478.245 412.942 478.152 413.341 477.966 413.749C477.78 414.151 477.444 414.49 476.958 414.766C476.472 415.042 475.779 415.18 474.879 415.18ZM482.872 415.18C482.314 415.18 481.867 415.078 481.531 414.874C481.195 414.67 480.949 414.409 480.793 414.091C480.643 413.767 480.568 413.428 480.568 413.074V407.44H479.056L479.2 406.18H480.568V404.002L482.188 403.84V406.18H484.51V407.44H482.188V412.084C482.188 412.648 482.221 413.056 482.287 413.308C482.353 413.56 482.515 413.719 482.773 413.785C483.037 413.851 483.46 413.884 484.042 413.884H484.456L484.33 415.18H482.872ZM485.895 415V406.18H487.227L487.425 407.638C487.875 407.08 488.304 406.669 488.712 406.405C489.126 406.135 489.567 406 490.035 406C490.185 406 490.323 406.018 490.449 406.054L490.287 407.836C490.209 407.818 490.125 407.806 490.035 407.8C489.951 407.788 489.855 407.782 489.747 407.782C489.279 407.782 488.847 407.887 488.451 408.097C488.061 408.301 487.785 408.526 487.623 408.772V415H485.895ZM495.592 415.18C494.554 415.18 493.681 414.967 492.973 414.541C492.265 414.115 491.728 413.551 491.362 412.849C491.002 412.141 490.822 411.364 490.822 410.518C490.822 409.696 490.99 408.943 491.326 408.259C491.668 407.575 492.16 407.029 492.802 406.621C493.45 406.207 494.23 406 495.142 406C495.874 406 496.525 406.147 497.095 406.441C497.671 406.729 498.121 407.152 498.445 407.71C498.775 408.262 498.94 408.934 498.94 409.726C498.94 409.852 498.934 409.99 498.922 410.14C498.916 410.284 498.898 410.434 498.868 410.59H492.478C492.556 411.406 492.751 412.042 493.063 412.498C493.375 412.954 493.768 413.275 494.242 413.461C494.716 413.647 495.232 413.74 495.79 413.74C496.198 413.74 496.624 413.698 497.068 413.614C497.512 413.53 497.932 413.398 498.328 413.218L498.544 414.496C498.202 414.646 497.785 414.799 497.293 414.955C496.801 415.105 496.234 415.18 495.592 415.18ZM492.622 409.474H497.266C497.266 409.06 497.188 408.7 497.032 408.394C496.876 408.088 496.639 407.854 496.321 407.692C496.003 407.524 495.598 407.44 495.106 407.44C494.386 407.44 493.831 407.62 493.441 407.98C493.057 408.334 492.784 408.832 492.622 409.474ZM503.075 415.18C502.295 415.18 501.647 415.087 501.131 414.901C500.621 414.715 500.261 414.55 500.051 414.406L500.249 412.84C500.441 413.008 500.78 413.2 501.266 413.416C501.752 413.632 502.331 413.74 503.003 413.74C503.573 413.74 504.008 413.644 504.308 413.452C504.614 413.26 504.767 412.99 504.767 412.642C504.767 412.336 504.668 412.09 504.47 411.904C504.278 411.712 504.044 411.562 503.768 411.454C503.498 411.34 503.243 411.25 503.003 411.184C502.601 411.076 502.184 410.941 501.752 410.779C501.326 410.611 500.966 410.362 500.672 410.032C500.378 409.702 500.231 409.24 500.231 408.646C500.231 408.196 500.339 407.77 500.555 407.368C500.771 406.96 501.122 406.63 501.608 406.378C502.094 406.126 502.739 406 503.543 406C504.131 406 504.608 406.063 504.974 406.189C505.346 406.309 505.667 406.438 505.937 406.576L505.739 408.052C505.481 407.836 505.181 407.653 504.839 407.503C504.497 407.353 504.077 407.278 503.579 407.278C503.075 407.278 502.664 407.374 502.346 407.566C502.028 407.752 501.869 408.052 501.869 408.466C501.869 408.88 502.037 409.174 502.373 409.348C502.715 409.522 503.231 409.714 503.921 409.924C504.137 409.984 504.386 410.071 504.668 410.185C504.956 410.299 505.235 410.452 505.505 410.644C505.775 410.836 505.997 411.088 506.171 411.4C506.351 411.706 506.441 412.09 506.441 412.552C506.441 412.942 506.348 413.341 506.162 413.749C505.976 414.151 505.64 414.49 505.154 414.766C504.668 415.042 503.975 415.18 503.075 415.18ZM510.528 415.18C509.748 415.18 509.1 415.087 508.584 414.901C508.074 414.715 507.714 414.55 507.504 414.406L507.702 412.84C507.894 413.008 508.233 413.2 508.719 413.416C509.205 413.632 509.784 413.74 510.456 413.74C511.026 413.74 511.461 413.644 511.761 413.452C512.067 413.26 512.22 412.99 512.22 412.642C512.22 412.336 512.121 412.09 511.923 411.904C511.731 411.712 511.497 411.562 511.221 411.454C510.951 411.34 510.696 411.25 510.456 411.184C510.054 411.076 509.637 410.941 509.205 410.779C508.779 410.611 508.419 410.362 508.125 410.032C507.831 409.702 507.684 409.24 507.684 408.646C507.684 408.196 507.792 407.77 508.008 407.368C508.224 406.96 508.575 406.63 509.061 406.378C509.547 406.126 510.192 406 510.996 406C511.584 406 512.061 406.063 512.427 406.189C512.799 406.309 513.12 406.438 513.39 406.576L513.192 408.052C512.934 407.836 512.634 407.653 512.292 407.503C511.95 407.353 511.53 407.278 511.032 407.278C510.528 407.278 510.117 407.374 509.799 407.566C509.481 407.752 509.322 408.052 509.322 408.466C509.322 408.88 509.49 409.174 509.826 409.348C510.168 409.522 510.684 409.714 511.374 409.924C511.59 409.984 511.839 410.071 512.121 410.185C512.409 410.299 512.688 410.452 512.958 410.644C513.228 410.836 513.45 411.088 513.624 411.4C513.804 411.706 513.894 412.09 513.894 412.552C513.894 412.942 513.801 413.341 513.615 413.749C513.429 414.151 513.093 414.49 512.607 414.766C512.121 415.042 511.428 415.18 510.528 415.18Z" fill="black"/>
<rect x="339.5" y="308.5" width="225" height="57" rx="10.5" fill="#EEFFE6"/>
<rect x="339.5" y="308.5" width="225" height="57" rx="10.5" stroke="#C5FBAC" stroke-width="3"/>
<path d="M365.44 343V330.4H367.15V341.452H372.928V343H365.44ZM374.116 343V334.18H375.736V343H374.116ZM374.116 332.2V330.4H375.736V332.2H374.116ZM378.542 343V335.44H377.012L377.228 334.18H378.542V332.092C378.542 331.306 378.752 330.679 379.172 330.211C379.592 329.737 380.21 329.5 381.026 329.5C381.326 329.5 381.587 329.521 381.809 329.563C382.037 329.605 382.244 329.662 382.43 329.734L382.178 331.102C382.034 331.048 381.893 331.009 381.755 330.985C381.617 330.955 381.458 330.94 381.278 330.94C380.93 330.94 380.657 331.039 380.459 331.237C380.261 331.429 380.162 331.75 380.162 332.2V334.18H382.538V335.44H380.162V343H378.542ZM387.943 343.18C386.905 343.18 386.032 342.967 385.324 342.541C384.616 342.115 384.079 341.551 383.713 340.849C383.353 340.141 383.173 339.364 383.173 338.518C383.173 337.696 383.341 336.943 383.677 336.259C384.019 335.575 384.511 335.029 385.153 334.621C385.801 334.207 386.581 334 387.493 334C388.225 334 388.876 334.147 389.446 334.441C390.022 334.729 390.472 335.152 390.796 335.71C391.126 336.262 391.291 336.934 391.291 337.726C391.291 337.852 391.285 337.99 391.273 338.14C391.267 338.284 391.249 338.434 391.219 338.59H384.829C384.907 339.406 385.102 340.042 385.414 340.498C385.726 340.954 386.119 341.275 386.593 341.461C387.067 341.647 387.583 341.74 388.141 341.74C388.549 341.74 388.975 341.698 389.419 341.614C389.863 341.53 390.283 341.398 390.679 341.218L390.895 342.496C390.553 342.646 390.136 342.799 389.644 342.955C389.152 343.105 388.585 343.18 387.943 343.18ZM384.973 337.474H389.617C389.617 337.06 389.539 336.7 389.383 336.394C389.227 336.088 388.99 335.854 388.672 335.692C388.354 335.524 387.949 335.44 387.457 335.44C386.737 335.44 386.182 335.62 385.792 335.98C385.408 336.334 385.135 336.832 384.973 337.474ZM395.426 343.18C394.646 343.18 393.998 343.087 393.482 342.901C392.972 342.715 392.612 342.55 392.402 342.406L392.6 340.84C392.792 341.008 393.131 341.2 393.617 341.416C394.103 341.632 394.682 341.74 395.354 341.74C395.924 341.74 396.359 341.644 396.659 341.452C396.965 341.26 397.118 340.99 397.118 340.642C397.118 340.336 397.019 340.09 396.821 339.904C396.629 339.712 396.395 339.562 396.119 339.454C395.849 339.34 395.594 339.25 395.354 339.184C394.952 339.076 394.535 338.941 394.103 338.779C393.677 338.611 393.317 338.362 393.023 338.032C392.729 337.702 392.582 337.24 392.582 336.646C392.582 336.196 392.69 335.77 392.906 335.368C393.122 334.96 393.473 334.63 393.959 334.378C394.445 334.126 395.09 334 395.894 334C396.482 334 396.959 334.063 397.325 334.189C397.697 334.309 398.018 334.438 398.288 334.576L398.09 336.052C397.832 335.836 397.532 335.653 397.19 335.503C396.848 335.353 396.428 335.278 395.93 335.278C395.426 335.278 395.015 335.374 394.697 335.566C394.379 335.752 394.22 336.052 394.22 336.466C394.22 336.88 394.388 337.174 394.724 337.348C395.066 337.522 395.582 337.714 396.272 337.924C396.488 337.984 396.737 338.071 397.019 338.185C397.307 338.299 397.586 338.452 397.856 338.644C398.126 338.836 398.348 339.088 398.522 339.4C398.702 339.706 398.792 340.09 398.792 340.552C398.792 340.942 398.699 341.341 398.513 341.749C398.327 342.151 397.991 342.49 397.505 342.766C397.019 343.042 396.326 343.18 395.426 343.18ZM403.419 343.18C402.861 343.18 402.414 343.078 402.078 342.874C401.742 342.67 401.496 342.409 401.34 342.091C401.19 341.767 401.115 341.428 401.115 341.074V335.44H399.603L399.747 334.18H401.115V332.002L402.735 331.84V334.18H405.057V335.44H402.735V340.084C402.735 340.648 402.768 341.056 402.834 341.308C402.9 341.56 403.062 341.719 403.32 341.785C403.584 341.851 404.007 341.884 404.589 341.884H405.003L404.877 343.18H403.419ZM407.108 347.356L409.142 342.604L405.47 334.18H407.27L410.024 340.732L412.508 334.18H414.308L408.908 347.356H407.108ZM417.798 343.18C417.228 343.18 416.775 343.078 416.439 342.874C416.109 342.664 415.872 342.397 415.728 342.073C415.584 341.749 415.512 341.41 415.512 341.056V329.5H417.132V340.12C417.132 340.624 417.165 341.002 417.231 341.254C417.297 341.506 417.429 341.674 417.627 341.758C417.831 341.842 418.14 341.884 418.554 341.884L418.32 343.18H417.798ZM423.926 343.18C422.888 343.18 422.015 342.967 421.307 342.541C420.599 342.115 420.062 341.551 419.696 340.849C419.336 340.141 419.156 339.364 419.156 338.518C419.156 337.696 419.324 336.943 419.66 336.259C420.002 335.575 420.494 335.029 421.136 334.621C421.784 334.207 422.564 334 423.476 334C424.208 334 424.859 334.147 425.429 334.441C426.005 334.729 426.455 335.152 426.779 335.71C427.109 336.262 427.274 336.934 427.274 337.726C427.274 337.852 427.268 337.99 427.256 338.14C427.25 338.284 427.232 338.434 427.202 338.59H420.812C420.89 339.406 421.085 340.042 421.397 340.498C421.709 340.954 422.102 341.275 422.576 341.461C423.05 341.647 423.566 341.74 424.124 341.74C424.532 341.74 424.958 341.698 425.402 341.614C425.846 341.53 426.266 341.398 426.662 341.218L426.878 342.496C426.536 342.646 426.119 342.799 425.627 342.955C425.135 343.105 424.568 343.18 423.926 343.18ZM420.956 337.474H425.6C425.6 337.06 425.522 336.7 425.366 336.394C425.21 336.088 424.973 335.854 424.655 335.692C424.337 335.524 423.932 335.44 423.44 335.44C422.72 335.44 422.165 335.62 421.775 335.98C421.391 336.334 421.118 336.832 420.956 337.474ZM437 343.18C436.004 343.18 435.167 342.979 434.489 342.577C433.817 342.169 433.307 341.623 432.959 340.939C432.617 340.249 432.446 339.484 432.446 338.644C432.446 337.768 432.611 336.979 432.941 336.277C433.277 335.575 433.79 335.02 434.48 334.612C435.17 334.204 436.052 334 437.126 334C437.588 334 438.023 334.048 438.431 334.144C438.845 334.234 439.214 334.36 439.538 334.522L439.286 335.944C438.956 335.788 438.605 335.665 438.233 335.575C437.867 335.485 437.486 335.44 437.09 335.44C436.118 335.44 435.377 335.716 434.867 336.268C434.357 336.82 434.102 337.588 434.102 338.572C434.102 339.532 434.345 340.303 434.831 340.885C435.317 341.467 436.058 341.758 437.054 341.758C437.462 341.758 437.852 341.71 438.224 341.614C438.602 341.518 438.962 341.386 439.304 341.218L439.52 342.514C439.28 342.682 438.929 342.835 438.467 342.973C438.005 343.111 437.516 343.18 437 343.18ZM441.105 343V329.5H442.743V335.71L442.167 335.674C442.581 335.152 443.025 334.744 443.499 334.45C443.979 334.15 444.591 334 445.335 334C446.097 334 446.733 334.171 447.243 334.513C447.753 334.855 448.134 335.332 448.386 335.944C448.644 336.556 448.773 337.27 448.773 338.086V343H447.153V338.284C447.153 337.312 446.973 336.595 446.613 336.133C446.259 335.671 445.713 335.44 444.975 335.44C444.417 335.44 443.922 335.59 443.49 335.89C443.064 336.19 442.725 336.592 442.473 337.096L442.743 336.106V343H441.105ZM452.931 343.18C452.385 343.18 451.908 343.069 451.5 342.847C451.092 342.625 450.774 342.322 450.546 341.938C450.324 341.554 450.213 341.116 450.213 340.624C450.213 340.126 450.321 339.7 450.537 339.346C450.759 338.986 451.053 338.689 451.419 338.455C451.791 338.215 452.205 338.026 452.661 337.888C453.117 337.744 453.588 337.642 454.074 337.582C454.566 337.516 455.037 337.48 455.487 337.474C455.487 336.634 455.322 336.085 454.992 335.827C454.662 335.569 454.185 335.44 453.561 335.44C453.231 335.44 452.877 335.491 452.499 335.593C452.127 335.695 451.707 335.908 451.239 336.232L451.005 334.918C451.359 334.648 451.8 334.429 452.328 334.261C452.856 334.087 453.411 334 453.993 334C454.737 334 455.337 334.132 455.793 334.396C456.249 334.654 456.582 335.092 456.792 335.71C457.002 336.328 457.107 337.168 457.107 338.23V340.03C457.107 340.45 457.125 340.798 457.161 341.074C457.203 341.344 457.293 341.548 457.431 341.686C457.575 341.818 457.803 341.884 458.115 341.884H458.277L458.025 343.18H457.899C457.377 343.18 456.972 343.129 456.684 343.027C456.402 342.925 456.186 342.778 456.036 342.586C455.886 342.394 455.751 342.16 455.631 341.884C455.301 342.268 454.911 342.58 454.461 342.82C454.011 343.06 453.501 343.18 452.931 343.18ZM453.237 341.884C453.669 341.884 454.086 341.776 454.488 341.56C454.896 341.344 455.229 341.056 455.487 340.696V338.59C454.629 338.62 453.933 338.704 453.399 338.842C452.871 338.98 452.484 339.187 452.238 339.463C451.992 339.739 451.869 340.096 451.869 340.534C451.869 341.008 451.995 341.353 452.247 341.569C452.505 341.779 452.835 341.884 453.237 341.884ZM459.528 343V334.18H460.788L461.112 335.872L460.482 335.602C461.076 334.942 461.655 334.51 462.219 334.306C462.789 334.102 463.344 334 463.884 334C465.174 334 466.095 334.372 466.647 335.116C467.205 335.86 467.484 336.868 467.484 338.14V343H465.864V338.14C465.864 337.204 465.69 336.52 465.342 336.088C464.994 335.656 464.4 335.44 463.56 335.44C462.966 335.44 462.42 335.572 461.922 335.836C461.43 336.094 461.106 336.508 460.95 337.078L461.148 336.088V343H459.528ZM473.146 347.5C472.342 347.5 471.622 347.401 470.986 347.203C470.356 347.005 469.858 346.711 469.492 346.321C469.132 345.931 468.952 345.448 468.952 344.872C468.952 344.392 469.087 343.978 469.357 343.63C469.633 343.288 470.008 343.012 470.482 342.802C470.2 342.664 469.984 342.502 469.834 342.316C469.69 342.124 469.618 341.914 469.618 341.686C469.618 341.416 469.699 341.173 469.861 340.957C470.029 340.735 470.296 340.552 470.662 340.408C470.17 340.102 469.792 339.691 469.528 339.175C469.264 338.653 469.132 338.074 469.132 337.438C469.132 336.796 469.276 336.217 469.564 335.701C469.852 335.179 470.266 334.765 470.806 334.459C471.352 334.153 472.006 334 472.768 334C473.176 334 473.56 334.06 473.92 334.18C474.286 334.3 474.622 334.468 474.928 334.684C475.198 334.528 475.516 334.399 475.882 334.297C476.254 334.195 476.668 334.144 477.124 334.144C477.154 334.144 477.178 334.144 477.196 334.144C477.22 334.144 477.244 334.144 477.268 334.144L477.07 335.224C476.998 335.224 476.929 335.224 476.863 335.224C476.797 335.224 476.728 335.224 476.656 335.224C476.596 335.224 476.458 335.233 476.242 335.251C476.026 335.269 475.828 335.302 475.648 335.35C475.894 335.638 476.083 335.962 476.215 336.322C476.353 336.676 476.422 337.048 476.422 337.438C476.422 338.11 476.275 338.713 475.981 339.247C475.693 339.775 475.276 340.195 474.73 340.507C474.184 340.813 473.53 340.966 472.768 340.966C472.552 340.966 472.345 340.954 472.147 340.93C471.949 340.9 471.76 340.858 471.58 340.804C471.304 340.894 471.166 341.05 471.166 341.272C471.166 341.404 471.244 341.521 471.4 341.623C471.556 341.719 471.808 341.794 472.156 341.848L474.514 342.226C475.468 342.376 476.203 342.652 476.719 343.054C477.241 343.456 477.502 344.026 477.502 344.764C477.502 345.376 477.322 345.883 476.962 346.285C476.608 346.693 476.104 346.996 475.45 347.194C474.796 347.398 474.028 347.5 473.146 347.5ZM473.29 346.06C474.118 346.06 474.754 345.952 475.198 345.736C475.642 345.526 475.864 345.214 475.864 344.8C475.864 344.476 475.723 344.221 475.441 344.035C475.165 343.849 474.766 343.708 474.244 343.612L471.733 343.189C471.403 343.333 471.115 343.525 470.869 343.765C470.623 344.011 470.5 344.296 470.5 344.62C470.5 345.124 470.752 345.49 471.256 345.718C471.766 345.946 472.444 346.06 473.29 346.06ZM472.768 339.67C473.452 339.67 473.974 339.466 474.334 339.058C474.694 338.644 474.874 338.11 474.874 337.456C474.874 336.826 474.694 336.31 474.334 335.908C473.974 335.5 473.452 335.296 472.768 335.296C472.084 335.296 471.565 335.5 471.211 335.908C470.857 336.31 470.68 336.826 470.68 337.456C470.68 338.11 470.857 338.644 471.211 339.058C471.565 339.466 472.084 339.67 472.768 339.67ZM482.777 343.18C481.739 343.18 480.866 342.967 480.158 342.541C479.45 342.115 478.913 341.551 478.547 340.849C478.187 340.141 478.007 339.364 478.007 338.518C478.007 337.696 478.175 336.943 478.511 336.259C478.853 335.575 479.345 335.029 479.987 334.621C480.635 334.207 481.415 334 482.327 334C483.059 334 483.71 334.147 484.28 334.441C484.856 334.729 485.306 335.152 485.63 335.71C485.96 336.262 486.125 336.934 486.125 337.726C486.125 337.852 486.119 337.99 486.107 338.14C486.101 338.284 486.083 338.434 486.053 338.59H479.663C479.741 339.406 479.936 340.042 480.248 340.498C480.56 340.954 480.953 341.275 481.427 341.461C481.901 341.647 482.417 341.74 482.975 341.74C483.383 341.74 483.809 341.698 484.253 341.614C484.697 341.53 485.117 341.398 485.513 341.218L485.729 342.496C485.387 342.646 484.97 342.799 484.478 342.955C483.986 343.105 483.419 343.18 482.777 343.18ZM479.807 337.474H484.451C484.451 337.06 484.373 336.7 484.217 336.394C484.061 336.088 483.824 335.854 483.506 335.692C483.188 335.524 482.783 335.44 482.291 335.44C481.571 335.44 481.016 335.62 480.626 335.98C480.242 336.334 479.969 336.832 479.807 337.474ZM490.26 343.18C489.48 343.18 488.832 343.087 488.316 342.901C487.806 342.715 487.446 342.55 487.236 342.406L487.434 340.84C487.626 341.008 487.965 341.2 488.451 341.416C488.937 341.632 489.516 341.74 490.188 341.74C490.758 341.74 491.193 341.644 491.493 341.452C491.799 341.26 491.952 340.99 491.952 340.642C491.952 340.336 491.853 340.09 491.655 339.904C491.463 339.712 491.229 339.562 490.953 339.454C490.683 339.34 490.428 339.25 490.188 339.184C489.786 339.076 489.369 338.941 488.937 338.779C488.511 338.611 488.151 338.362 487.857 338.032C487.563 337.702 487.416 337.24 487.416 336.646C487.416 336.196 487.524 335.77 487.74 335.368C487.956 334.96 488.307 334.63 488.793 334.378C489.279 334.126 489.924 334 490.728 334C491.316 334 491.793 334.063 492.159 334.189C492.531 334.309 492.852 334.438 493.122 334.576L492.924 336.052C492.666 335.836 492.366 335.653 492.024 335.503C491.682 335.353 491.262 335.278 490.764 335.278C490.26 335.278 489.849 335.374 489.531 335.566C489.213 335.752 489.054 336.052 489.054 336.466C489.054 336.88 489.222 337.174 489.558 337.348C489.9 337.522 490.416 337.714 491.106 337.924C491.322 337.984 491.571 338.071 491.853 338.185C492.141 338.299 492.42 338.452 492.69 338.644C492.96 338.836 493.182 339.088 493.356 339.4C493.536 339.706 493.626 340.09 493.626 340.552C493.626 340.942 493.533 341.341 493.347 341.749C493.161 342.151 492.825 342.49 492.339 342.766C491.853 343.042 491.16 343.18 490.26 343.18Z" fill="black"/>
<path d="M68.4065 142.894C83.6686 134.272 102.331 134.272 117.594 142.894L148.134 160.147C163.833 169.016 173.54 185.65 173.54 203.68V236.32C173.54 254.35 163.833 270.984 148.134 279.853L117.593 297.106C102.331 305.728 83.6686 305.728 68.4065 297.106L37.8661 279.853C22.1674 270.984 12.4596 254.35 12.4596 236.32V203.68C12.4596 185.65 22.1674 169.016 37.8661 160.147L68.4065 142.894Z" fill="white" stroke="url(#paint0_linear_1_466)" stroke-width="11"/>
<path d="M72.3905 228.308C71.7671 228.308 71.1255 228.246 70.4655 228.121C69.8055 228.004 69.1931 227.861 68.6285 227.692C68.0638 227.516 67.6165 227.347 67.2865 227.186L67.6165 224.194C68.1298 224.443 68.6651 224.674 69.2225 224.887C69.7798 225.1 70.3518 225.272 70.9385 225.404C71.5251 225.536 72.1191 225.602 72.7205 225.602C73.4685 225.602 74.0698 225.455 74.5245 225.162C74.9791 224.869 75.2065 224.421 75.2065 223.82C75.2065 223.358 75.0781 222.988 74.8215 222.709C74.5648 222.423 74.1725 222.17 73.6445 221.95C73.1165 221.723 72.4418 221.466 71.6205 221.18C70.7991 220.894 70.0621 220.571 69.4095 220.212C68.7568 219.845 68.2398 219.383 67.8585 218.826C67.4771 218.269 67.2865 217.557 67.2865 216.692C67.2865 215.841 67.4955 215.086 67.9135 214.426C68.3315 213.759 68.9548 213.238 69.7835 212.864C70.6195 212.483 71.6571 212.292 72.8965 212.292C73.8351 212.292 74.7298 212.398 75.5805 212.611C76.4311 212.816 77.1571 213.04 77.7585 213.282L77.4725 216.164C76.6071 215.775 75.7931 215.482 75.0305 215.284C74.2751 215.079 73.5051 214.976 72.7205 214.976C71.8991 214.976 71.2648 215.112 70.8175 215.383C70.3701 215.654 70.1465 216.061 70.1465 216.604C70.1465 217.037 70.2711 217.385 70.5205 217.649C70.7698 217.913 71.1255 218.14 71.5875 218.331C72.0495 218.514 72.6031 218.709 73.2485 218.914C74.3631 219.266 75.2981 219.655 76.0535 220.08C76.8161 220.498 77.3881 221.008 77.7695 221.609C78.1581 222.203 78.3525 222.94 78.3525 223.82C78.3525 224.26 78.2828 224.74 78.1435 225.261C78.0041 225.774 77.7291 226.262 77.3185 226.724C76.9078 227.186 76.3065 227.567 75.5145 227.868C74.7298 228.161 73.6885 228.308 72.3905 228.308ZM82.9553 228.22C82.3026 228.22 81.7673 228.092 81.3493 227.835C80.9386 227.571 80.6343 227.223 80.4363 226.79C80.2383 226.35 80.1393 225.866 80.1393 225.338V211.5H82.8673V224.216C82.8673 224.803 82.9003 225.221 82.9663 225.47C83.0396 225.712 83.1716 225.859 83.3623 225.91C83.5529 225.954 83.8279 225.976 84.1873 225.976L83.9453 228.22H82.9553ZM91.1132 228.22C89.7858 228.22 88.6785 227.956 87.7912 227.428C86.9112 226.893 86.2512 226.189 85.8112 225.316C85.3712 224.436 85.1512 223.475 85.1512 222.434C85.1512 221.429 85.3565 220.502 85.7672 219.651C86.1852 218.8 86.7938 218.118 87.5932 217.605C88.3925 217.084 89.3678 216.824 90.5192 216.824C91.5752 216.824 92.4552 217.04 93.1592 217.473C93.8632 217.906 94.3912 218.485 94.7432 219.211C95.0952 219.93 95.2712 220.725 95.2712 221.598C95.2712 221.84 95.2565 222.086 95.2272 222.335C95.1978 222.577 95.1538 222.83 95.0952 223.094H87.9892C88.0918 223.776 88.3045 224.33 88.6272 224.755C88.9572 225.173 89.3568 225.481 89.8262 225.679C90.3028 225.877 90.8125 225.976 91.3552 225.976C91.9932 225.976 92.5872 225.895 93.1372 225.734C93.6872 225.565 94.1932 225.345 94.6552 225.074L94.7872 227.384C94.3692 227.604 93.8485 227.798 93.2252 227.967C92.6018 228.136 91.8978 228.22 91.1132 228.22ZM88.0552 221.246H92.4992C92.4992 220.916 92.4368 220.586 92.3122 220.256C92.1875 219.919 91.9785 219.636 91.6852 219.409C91.3992 219.182 91.0105 219.068 90.5192 219.068C89.8152 219.068 89.2615 219.273 88.8582 219.684C88.4548 220.095 88.1872 220.615 88.0552 221.246ZM102.435 228.22C101.108 228.22 100.001 227.956 99.1134 227.428C98.2334 226.893 97.5734 226.189 97.1334 225.316C96.6934 224.436 96.4734 223.475 96.4734 222.434C96.4734 221.429 96.6788 220.502 97.0894 219.651C97.5074 218.8 98.1161 218.118 98.9154 217.605C99.7148 217.084 100.69 216.824 101.841 216.824C102.897 216.824 103.777 217.04 104.481 217.473C105.185 217.906 105.713 218.485 106.065 219.211C106.417 219.93 106.593 220.725 106.593 221.598C106.593 221.84 106.579 222.086 106.549 222.335C106.52 222.577 106.476 222.83 106.417 223.094H99.3114C99.4141 223.776 99.6268 224.33 99.9494 224.755C100.279 225.173 100.679 225.481 101.148 225.679C101.625 225.877 102.135 225.976 102.677 225.976C103.315 225.976 103.909 225.895 104.459 225.734C105.009 225.565 105.515 225.345 105.977 225.074L106.109 227.384C105.691 227.604 105.171 227.798 104.547 227.967C103.924 228.136 103.22 228.22 102.435 228.22ZM99.3774 221.246H103.821C103.821 220.916 103.759 220.586 103.634 220.256C103.51 219.919 103.301 219.636 103.007 219.409C102.721 219.182 102.333 219.068 101.841 219.068C101.137 219.068 100.584 219.273 100.18 219.684C99.7771 220.095 99.5094 220.615 99.3774 221.246ZM108.456 233.324V217H110.656L111.184 218.826L110.37 218.54C110.876 218.019 111.426 217.605 112.02 217.297C112.614 216.982 113.34 216.824 114.198 216.824C115.276 216.824 116.181 217.084 116.915 217.605C117.648 218.126 118.202 218.819 118.576 219.684C118.957 220.549 119.148 221.495 119.148 222.522C119.148 223.549 118.957 224.495 118.576 225.36C118.202 226.225 117.648 226.918 116.915 227.439C116.181 227.96 115.276 228.22 114.198 228.22C113.34 228.22 112.643 228.103 112.108 227.868C111.572 227.633 111.03 227.259 110.48 226.746L111.184 226.196V233.324H108.456ZM113.78 225.976C114.594 225.976 115.224 225.657 115.672 225.019C116.126 224.374 116.354 223.541 116.354 222.522C116.354 221.495 116.126 220.663 115.672 220.025C115.224 219.387 114.594 219.068 113.78 219.068C113.149 219.068 112.632 219.215 112.229 219.508C111.825 219.801 111.528 220.208 111.338 220.729C111.147 221.242 111.052 221.84 111.052 222.522C111.052 223.204 111.147 223.805 111.338 224.326C111.528 224.839 111.825 225.243 112.229 225.536C112.632 225.829 113.149 225.976 113.78 225.976Z" fill="black"/>
<defs>
<linearGradient id="paint0_linear_1_466" x1="93" y1="149.682" x2="93" y2="295.636" gradientUnits="userSpaceOnUse">
<stop stop-color="#F99FC3"/>
<stop offset="0.1875" stop-color="#8D7DE9"/>
<stop offset="0.359375" stop-color="#ACD0FB"/>
<stop offset="0.583333" stop-color="#ACFBED"/>
<stop offset="0.786458" stop-color="#C5FBAC"/>
<stop offset="1" stop-color="#F4D689"/>
</linearGradient>
</defs>
</svg>
